HIERARCHY
ROOT Hips
{
	OFFSET	0.00	0.00	0.00
	CHANNELS 6 Xposition Yposition Zposition Zrotation Xrotation Yrotation
	JOINT LeftUpLeg
	{
		OFFSET	 0.126116	-0.014019	-0.065224
		CHANNELS 3 Zrotation Xrotation Yrotation
		JOINT LeftLeg
		{
			OFFSET	 0.000000	 0.000000	 0.569914
			CHANNELS 3 Zrotation Xrotation Yrotation
			JOINT LeftFoot
			{
				OFFSET	 0.000000	 0.000000	 0.544423
				CHANNELS 3 Zrotation Xrotation Yrotation
				JOINT LeftToeBase
				{
					OFFSET	 0.000000	 0.000000	 0.207117
					CHANNELS 3 Zrotation Xrotation Yrotation
					End Site
					{
						OFFSET	 0.000000	 0.000000	 0.207117
					}
				}
			}
		}
	}
	JOINT RightUpLeg
	{
		OFFSET	-0.124023	-0.008373	-0.065224
		CHANNELS 3 Zrotation Xrotation Yrotation
		JOINT RightLeg
		{
			OFFSET	 0.000000	 0.000000	 0.570047
			CHANNELS 3 Zrotation Xrotation Yrotation
			JOINT RightFoot
			{
				OFFSET	 0.000000	 0.000000	 0.544354
				CHANNELS 3 Zrotation Xrotation Yrotation
				JOINT RightToeBase
				{
					OFFSET	 0.000000	 0.000000	 0.207540
					CHANNELS 3 Zrotation Xrotation Yrotation
					End Site
					{
						OFFSET	 0.000000	 0.000000	 0.207540
					}
				}
			}
		}
	}
	JOINT Spine
	{
		OFFSET	 0.000184	-0.007763	 0.117403
		CHANNELS 3 Zrotation Xrotation Yrotation
		JOINT Spine1
		{
			OFFSET	 0.000000	 0.000000	 0.137269
			CHANNELS 3 Zrotation Xrotation Yrotation
			JOINT Spine2
			{
				OFFSET	 0.000000	 0.000000	 0.156879
				CHANNELS 3 Zrotation Xrotation Yrotation
				JOINT LeftShoulder
				{
					OFFSET	 0.080501	-0.002496	 0.160144
					CHANNELS 3 Zrotation Xrotation Yrotation
					JOINT LeftArm
					{
						OFFSET	 0.000000	 0.000000	 0.164363
						CHANNELS 3 Zrotation Xrotation Yrotation
						JOINT LeftForeArm
						{
							OFFSET	 0.000000	 0.000000	 0.364576
							CHANNELS 3 Zrotation Xrotation Yrotation
							JOINT LeftHand
							{
								OFFSET	 0.000000	 0.000000	 0.360812
								CHANNELS 3 Zrotation Xrotation Yrotation
								JOINT LeftHandIndex1
								{
									OFFSET	 0.000000	 0.000000	 0.086006
									CHANNELS 3 Zrotation Xrotation Yrotation
									JOINT LeftHandIndex2
									{
										OFFSET	 0.000000	 0.000000	 0.047237
										CHANNELS 3 Zrotation Xrotation Yrotation
										JOINT LeftHandIndex3
										{
											OFFSET	-0.004284	-0.000551	 0.038165
											CHANNELS 3 Zrotation Xrotation Yrotation
											End Site
											{
												OFFSET	-0.004284	-0.000551	 0.038165
											}
										}
									}
								}
							}
						}
					}
				}
				JOINT Neck
				{
					OFFSET	 0.000000	 0.000000	 0.176489
					CHANNELS 3 Zrotation Xrotation Yrotation
					JOINT Head
					{
						OFFSET	 0.000000	-0.001747	 0.077940
						CHANNELS 3 Zrotation Xrotation Yrotation
						End Site
						{
							OFFSET	 0.000000	-0.001747	 0.077940
						}
					}
				}
				JOINT RightShoulder
				{
					OFFSET	-0.080363	 0.000306	 0.159706
					CHANNELS 3 Zrotation Xrotation Yrotation
					JOINT RightArm
					{
						OFFSET	 0.000000	 0.000000	 0.164196
						CHANNELS 3 Zrotation Xrotation Yrotation
						JOINT RightForeArm
						{
							OFFSET	 0.000000	 0.000000	 0.365611
							CHANNELS 3 Zrotation Xrotation Yrotation
							JOINT RightHand
							{
								OFFSET	 0.000000	 0.000000	 0.360648
								CHANNELS 3 Zrotation Xrotation Yrotation
								JOINT RightHandIndex1
								{
									OFFSET	 0.000000	 0.000000	 0.069977
									CHANNELS 3 Zrotation Xrotation Yrotation
									JOINT RightHandIndex2
									{
										OFFSET	 0.000000	 0.000000	 0.052305
										CHANNELS 3 Zrotation Xrotation Yrotation
										JOINT RightHandIndex3
										{
											OFFSET	 0.009002	-0.000782	 0.042196
											CHANNELS 3 Zrotation Xrotation Yrotation
											End Site
											{
												OFFSET	 0.009002	-0.000782	 0.042196
											}
										}
									}
								}
							}
						}
					}
				}
			}
		}
	}
}
MOTION
Frames:    6
Frame Time: 0.03333334
-0.719614	-0.006182	 1.271853	-176.210600	-6.698770	 0.399161	 12.271550	 4.196305	 175.567600	-6.263420	-12.516480	-1.684347	-5.153502	 70.655320	-1.697252	-2.385833	 28.452760	 0.000004	-10.037040	 5.332863	-177.821700	 3.524662	-13.039000	 0.846090	 6.333226	 70.949970	-1.844960	 2.384659	 28.388700	-0.000001	-0.732646	 7.018005	-3.037156	 0.902007	 12.448360	 7.571451	-7.197238	-10.623870	-8.174675	-91.776220	 78.527420	-180.000000	-10.684720	 8.549283	 11.846920	-15.797410	-3.805932	-55.756980	-1.876723	-11.102860	-2.372184	-4.130354	 21.526190	 0.991307	-5.167926	 0.731697	 3.519349	-1.378229	 35.397820	-2.634230	-9.320438	 1.464634	 4.886088	-6.515368	-17.561860	-6.892565	 89.782110	 78.203900	 180.000000	 26.409240	 3.279516	-4.555345	 9.815871	-2.537152	 50.686360	 50.182190	 46.595430	-9.183870	 5.716295	 19.173350	-3.684826	 5.027458	 0.246833	-9.377971	-2.350882	 35.473990	 5.254307
-0.719657	-0.006205	 1.271706	-176.182200	-6.723331	 0.360553	 12.294660	 4.081450	 175.554300	-6.286803	-12.900310	-1.740430	-5.522101	 70.922220	-1.296822	-2.385833	 28.452760	 0.000004	-10.030570	 5.304048	-177.759700	 3.535318	-13.309520	 0.865786	 6.397834	 71.157420	-1.923017	 2.384659	 28.388700	-0.000001	-0.876630	 7.062779	-2.993197	 0.809735	 12.266850	 7.552914	-7.161158	-10.487080	-8.132488	-91.776180	 78.527400	 180.000000	-10.700700	 9.712747	 12.786380	-15.880020	-3.964535	-57.689340	-1.891695	-11.099280	-2.379647	-4.130354	 21.526190	 0.991307	-5.167926	 0.731697	 3.519349	-1.378229	 35.397820	-2.634230	-9.303257	 1.439133	 4.881199	-6.500586	-17.497910	-6.893927	 89.782130	 78.203870	 180.000000	 26.047520	 4.065639	-5.465970	 9.921611	-2.612417	 52.961330	 50.358260	 45.765810	-8.802485	 5.716295	 19.173350	-3.684826	 5.027458	 0.246833	-9.377971	-2.350882	 35.473990	 5.254307
-0.719741	-0.006255	 1.271393	-176.128100	-6.771805	 0.284896	 12.334520	 3.844536	 175.519200	-6.334944	-13.697090	-1.857453	-6.325389	 71.470120	-0.428570	-2.385833	 28.452760	 0.000004	-10.018070	 5.255496	-177.634600	 3.556357	-13.857950	 0.905834	 6.555991	 71.588870	-2.109214	 2.384659	 28.388700	-0.000001	-1.177284	 7.149892	-2.905389	 0.612624	 11.887530	 7.508410	-7.088642	-10.206730	-8.045157	-91.776210	 78.527380	-180.000000	-10.734300	 12.231890	 14.658940	-16.070000	-4.268252	-61.517630	-1.922154	-11.090210	-2.393281	-4.130354	 21.526190	 0.991307	-5.167926	 0.731697	 3.519349	-1.378229	 35.397820	-2.634230	-9.270256	 1.390098	 4.871834	-6.472152	-17.375060	-6.896667	 89.782060	 78.203890	-180.000000	 25.244380	 5.750984	-7.239884	 10.142110	-2.748968	 57.520040	 50.537260	 44.014860	-7.981896	 5.716295	 19.173350	-3.684826	 5.027458	 0.246833	-9.377971	-2.350882	 35.473990	 5.254307
-0.720271	-0.006631	 1.269106	-176.021700	-6.934887	-0.273144	 12.821730	 2.452187	 175.207200	-6.726605	-18.549230	-2.621540	-13.357410	 74.346020	 7.175379	-2.385833	 28.452760	 0.000004	-9.529102	 5.061996	-176.818600	 3.496417	-17.267080	 1.104670	 7.636267	 74.658150	-3.135571	 2.384659	 28.388700	-0.000001	-3.212963	 7.491597	-2.007288	-0.872016	 9.119159	 6.605281	-6.456203	-8.210751	-7.171515	-91.776160	 78.527400	 180.000000	-10.674130	 32.019350	 23.626420	-17.366700	-5.205334	-79.041240	-2.321678	-11.118570	-2.439572	-4.130354	 21.526190	 0.991307	-5.167926	 0.731697	 3.519349	-1.378229	 35.397820	-2.634230	-8.829315	 0.741129	 4.513406	-6.143686	-16.328720	-6.015387	 89.782140	 78.203890	 180.000000	 17.167790	 18.706650	-14.711200	 11.420930	-3.488614	 82.420790	 45.055340	 33.040030	 0.098223	 5.716295	 19.173350	-3.684826	 5.027458	 0.246833	-9.377971	-2.350882	 35.473990	 5.254307
-0.720509	-0.007175	 1.266248	-176.064300	-6.866848	 0.210107	 12.927390	 0.482753	 173.534500	-7.018808	-24.432800	-3.529936	-26.157940	 78.073670	 20.309370	-2.385833	 28.452760	 0.000004	-9.074855	 6.018003	-177.000500	 3.274500	-19.393590	 1.161795	 12.187180	 77.338040	-7.672530	 2.384659	 28.388700	-0.000001	-5.797005	 8.279243	-2.552267	-3.072582	 3.891087	 5.347706	-5.505372	-4.262356	-5.747692	-91.776190	 78.527420	-180.000000	-4.683410	 58.324450	 18.283460	-16.847910	-5.374545	-74.279460	-2.164639	-10.816150	-2.499475	-4.130354	 21.526190	 0.991307	-5.167926	 0.731697	 3.519349	-1.378229	 35.397820	-2.634230	-8.296320	 0.426610	 4.499402	-5.703750	-14.825450	-6.420136	 89.782140	 78.203890	 180.000000	-1.317637	 38.463220	-8.921642	 12.680410	-5.131911	 99.019470	 25.697240	 20.751030	 9.961205	 5.716295	 19.173350	-3.684826	 5.027458	 0.246833	-9.377971	-2.350882	 35.473990	 5.254307
-0.720733	-0.007841	 1.263933	-176.224700	-6.216920	 0.297857	 13.585440	-1.190480	 172.258400	-7.283942	-28.553100	-4.206319	-39.574110	 79.568130	 34.106410	-2.385833	 28.452760	 0.000004	-8.313347	 6.493354	-176.934900	 3.212554	-21.128800	 1.238760	 18.814610	 80.150600	-14.363830	 2.384659	 28.388700	-0.000001	-8.431274	 9.272969	-2.318897	-5.418414	-2.874051	 2.802373	-4.562495	 0.558184	-3.766754	-91.776200	 78.527400	-180.000000	 12.671280	 69.062760	-22.874110	-13.333490	-1.940743	-21.444600	-2.161286	-10.915210	-2.478697	-4.130354	 21.526190	 0.991307	-5.167926	 0.731697	 3.519349	-1.378229	 35.397820	-2.634230	-7.425063	-0.206963	 3.821059	-5.137794	-13.091030	-5.691218	 89.782160	 78.203890	 179.999900	-34.625100	 51.539580	 20.405080	 12.579080	-6.166857	 96.819210	 2.411113	 10.080440	 17.996550	 5.716295	 19.173350	-3.684826	 5.027458	 0.246833	-9.377971	-2.350882	 35.473990	 5.254307
